<?xml version="1.0" standalone="no"?><!DOCTYPE svg PUBLIC "-//W3C//DTD SVG 1.1//EN" "http://www.w3.org/Graphics/SVG/1.1/DTD/svg11.dtd"><svg t="1555065587728" class="icon" style="" viewBox="0 0 1024 1024" version="1.1" xmlns="http://www.w3.org/2000/svg" p-id="8395" xmlns:xlink="http://www.w3.org/1999/xlink" width="200" height="200"><defs><style type="text/css"></style></defs><path d="M280 752h80c4.4 0 8-3.6 8-8V280c0-4.4-3.6-8-8-8h-80c-4.4 0-8 3.6-8 8v464c0 4.4 3.6 8 8 8zM472 472h80c4.4 0 8-3.6 8-8V280c0-4.4-3.6-8-8-8h-80c-4.4 0-8 3.6-8 8v184c0 4.4 3.6 8 8 8zM664 544h80c4.4 0 8-3.6 8-8V280c0-4.4-3.6-8-8-8h-80c-4.4 0-8 3.6-8 8v256c0 4.4 3.6 8 8 8z" p-id="8396" fill="#e6e6e6"></path><path d="M880 112H144c-17.7 0-32 14.3-32 32v736c0 17.7 14.3 32 32 32h736c17.7 0 32-14.3 32-32V144c0-17.7-14.3-32-32-32z m-40 728H184V184h656v656z" p-id="8397" fill="#e6e6e6"></path></svg>